<svg width="286" height="180" viewBox="0 0 286 180" fill="none" xmlns="http://www.w3.org/2000/svg">
<rect width="286" height="180" fill="#FAF7F5"/>
<path d="M198.554 57.5024C197.654 55.9316 196.408 54.5612 195.038 53.7649L147.496 26.1944C144.751 24.6019 140.27 24.6019 137.53 26.1944L89.9775 53.7649C87.238 55.352 85 59.2519 85 62.4315V117.573C85 119.165 85.5608 120.931 86.4614 122.502C87.362 124.073 88.6077 125.443 89.9775 126.239L137.52 153.81C140.259 155.397 144.746 155.397 147.485 153.81L195.028 126.239C196.397 125.443 197.643 124.073 198.544 122.502C199.444 120.931 200 119.165 200 117.573V62.4315C200.016 60.839 199.46 59.0732 198.554 57.5024V57.5024ZM142.503 128.514C121.363 128.514 104.166 111.235 104.166 90.002C104.166 68.7689 121.368 51.4899 142.508 51.4899C149.234 51.5028 155.838 53.2866 161.663 56.6634C167.488 60.0403 172.33 64.8922 175.705 70.7351L159.117 80.3767C157.431 77.4503 155.009 75.0197 152.095 73.3278C149.18 71.6359 145.874 70.7419 142.508 70.7351C137.422 70.7394 132.545 72.7707 128.949 76.383C125.353 79.9953 123.33 84.8935 123.326 90.002C123.333 95.1078 125.356 100.002 128.951 103.612C132.546 107.222 137.419 109.252 142.503 109.258C145.868 109.251 149.172 108.358 152.086 106.668C155.001 104.978 157.423 102.551 159.112 99.6273L175.711 109.269C172.334 115.113 167.49 119.965 161.663 123.342C155.836 126.719 149.23 128.502 142.503 128.514V128.514ZM180.845 92.1416H176.584V96.4207H172.324V92.1416H168.064V87.8625H172.324V83.5833H176.584V87.8625H180.845V92.1416ZM196.818 92.1416H192.558V96.4207H188.297V92.1416H184.037V87.8625H188.297V83.5833H192.558V87.8625H196.818V92.1416Z" fill="black"/>
</svg>
